G04 #@! TF.GenerationSoftware,KiCad,Pcbnew,8.0.4*
G04 #@! TF.CreationDate,2025-03-14T11:46:41-03:00*
G04 #@! TF.ProjectId,generic_8_bit_audio_dac,67656e65-7269-4635-9f38-5f6269745f61,rev?*
G04 #@! TF.SameCoordinates,Original*
G04 #@! TF.FileFunction,Legend,Bot*
G04 #@! TF.FilePolarity,Positive*
%FSLAX46Y46*%
G04 Gerber Fmt 4.6, Leading zero omitted, Abs format (unit mm)*
G04 Created by KiCad (PCBNEW 8.0.4) date 2025-03-14 11:46:41*
%MOMM*%
%LPD*%
G01*
G04 APERTURE LIST*
%ADD10C,0.150000*%
%ADD11C,0.120000*%
%ADD12C,1.600000*%
%ADD13O,1.600000X1.600000*%
%ADD14R,1.600000X1.600000*%
%ADD15R,1.846667X3.480000*%
%ADD16C,2.500000*%
G04 APERTURE END LIST*
D10*
X133516666Y-80782319D02*
X133849999Y-80306128D01*
X134088094Y-80782319D02*
X134088094Y-79782319D01*
X134088094Y-79782319D02*
X133707142Y-79782319D01*
X133707142Y-79782319D02*
X133611904Y-79829938D01*
X133611904Y-79829938D02*
X133564285Y-79877557D01*
X133564285Y-79877557D02*
X133516666Y-79972795D01*
X133516666Y-79972795D02*
X133516666Y-80115652D01*
X133516666Y-80115652D02*
X133564285Y-80210890D01*
X133564285Y-80210890D02*
X133611904Y-80258509D01*
X133611904Y-80258509D02*
X133707142Y-80306128D01*
X133707142Y-80306128D02*
X134088094Y-80306128D01*
X132564285Y-80782319D02*
X133135713Y-80782319D01*
X132849999Y-80782319D02*
X132849999Y-79782319D01*
X132849999Y-79782319D02*
X132945237Y-79925176D01*
X132945237Y-79925176D02*
X133040475Y-80020414D01*
X133040475Y-80020414D02*
X133135713Y-80068033D01*
X141660476Y-76654819D02*
X141993809Y-76178628D01*
X142231904Y-76654819D02*
X142231904Y-75654819D01*
X142231904Y-75654819D02*
X141850952Y-75654819D01*
X141850952Y-75654819D02*
X141755714Y-75702438D01*
X141755714Y-75702438D02*
X141708095Y-75750057D01*
X141708095Y-75750057D02*
X141660476Y-75845295D01*
X141660476Y-75845295D02*
X141660476Y-75988152D01*
X141660476Y-75988152D02*
X141708095Y-76083390D01*
X141708095Y-76083390D02*
X141755714Y-76131009D01*
X141755714Y-76131009D02*
X141850952Y-76178628D01*
X141850952Y-76178628D02*
X142231904Y-76178628D01*
X141231904Y-76654819D02*
X141231904Y-75654819D01*
X141231904Y-75654819D02*
X140660476Y-76654819D01*
X140660476Y-76654819D02*
X140660476Y-75654819D01*
X139660476Y-76654819D02*
X140231904Y-76654819D01*
X139946190Y-76654819D02*
X139946190Y-75654819D01*
X139946190Y-75654819D02*
X140041428Y-75797676D01*
X140041428Y-75797676D02*
X140136666Y-75892914D01*
X140136666Y-75892914D02*
X140231904Y-75940533D01*
X149351666Y-76519580D02*
X149399285Y-76567200D01*
X149399285Y-76567200D02*
X149542142Y-76614819D01*
X149542142Y-76614819D02*
X149637380Y-76614819D01*
X149637380Y-76614819D02*
X149780237Y-76567200D01*
X149780237Y-76567200D02*
X149875475Y-76471961D01*
X149875475Y-76471961D02*
X149923094Y-76376723D01*
X149923094Y-76376723D02*
X149970713Y-76186247D01*
X149970713Y-76186247D02*
X149970713Y-76043390D01*
X149970713Y-76043390D02*
X149923094Y-75852914D01*
X149923094Y-75852914D02*
X149875475Y-75757676D01*
X149875475Y-75757676D02*
X149780237Y-75662438D01*
X149780237Y-75662438D02*
X149637380Y-75614819D01*
X149637380Y-75614819D02*
X149542142Y-75614819D01*
X149542142Y-75614819D02*
X149399285Y-75662438D01*
X149399285Y-75662438D02*
X149351666Y-75710057D01*
X148399285Y-76614819D02*
X148970713Y-76614819D01*
X148684999Y-76614819D02*
X148684999Y-75614819D01*
X148684999Y-75614819D02*
X148780237Y-75757676D01*
X148780237Y-75757676D02*
X148875475Y-75852914D01*
X148875475Y-75852914D02*
X148970713Y-75900533D01*
D11*
X136700000Y-75750000D02*
X136700000Y-79190000D01*
X136700000Y-79190000D02*
X127460000Y-79190000D01*
X127460000Y-79190000D02*
X127460000Y-75750000D01*
X127460000Y-75750000D02*
X136700000Y-75750000D01*
X142470000Y-77470000D02*
X136700000Y-77470000D01*
X121690000Y-77470000D02*
X127460000Y-77470000D01*
X144950000Y-72260000D02*
X144950000Y-75060000D01*
X144950000Y-75060000D02*
X119210000Y-75060000D01*
X119210000Y-75060000D02*
X119210000Y-72260000D01*
X119210000Y-72260000D02*
X144950000Y-72260000D01*
X142240000Y-72260000D02*
X142240000Y-75060000D01*
X146715000Y-75030000D02*
X151655000Y-75030000D01*
X146715000Y-72290000D02*
X151655000Y-72290000D01*
X146715000Y-75030000D02*
X146715000Y-74715000D01*
X146715000Y-72605000D02*
X146715000Y-72290000D01*
X151655000Y-75030000D02*
X151655000Y-74715000D01*
X151655000Y-72605000D02*
X151655000Y-72290000D01*
%LPC*%
D12*
X143510000Y-77470000D03*
D13*
X120650000Y-77470000D03*
D14*
X143510000Y-73660000D03*
D13*
X140970000Y-73660000D03*
X138430000Y-73660000D03*
X135890000Y-73660000D03*
X133350000Y-73660000D03*
X130810000Y-73660000D03*
X128270000Y-73660000D03*
X125730000Y-73660000D03*
X123190000Y-73660000D03*
X120650000Y-73660000D03*
D15*
X151530001Y-100457000D03*
X148760001Y-100457000D03*
X145990001Y-100457000D03*
X143220001Y-100457000D03*
X140450001Y-100457000D03*
X137680001Y-100457000D03*
X134910001Y-100457000D03*
X132140001Y-100457000D03*
X129370001Y-100457000D03*
X126600001Y-100457000D03*
X123830001Y-100457000D03*
X121060001Y-100457000D03*
X121036000Y-67183000D03*
X123806000Y-67183000D03*
X126576000Y-67183000D03*
X129346000Y-67183000D03*
X132116000Y-67183000D03*
X134886000Y-67183000D03*
X137656000Y-67183000D03*
X140426000Y-67183000D03*
X143196000Y-67183000D03*
X145966000Y-67183000D03*
X148736000Y-67183000D03*
X151506000Y-67183000D03*
D12*
X146685000Y-73660000D03*
X151685000Y-73660000D03*
D16*
X146050000Y-81280000D03*
X144145000Y-86995000D03*
%LPD*%
M02*
