G04 #@! TF.GenerationSoftware,KiCad,Pcbnew,8.0.4*
G04 #@! TF.CreationDate,2025-03-14T11:46:41-03:00*
G04 #@! TF.ProjectId,generic_8_bit_audio_dac,67656e65-7269-4635-9f38-5f6269745f61,rev?*
G04 #@! TF.SameCoordinates,Original*
G04 #@! TF.FileFunction,Copper,L1,Top*
G04 #@! TF.FilePolarity,Positive*
%FSLAX46Y46*%
G04 Gerber Fmt 4.6, Leading zero omitted, Abs format (unit mm)*
G04 Created by KiCad (PCBNEW 8.0.4) date 2025-03-14 11:46:41*
%MOMM*%
%LPD*%
G01*
G04 APERTURE LIST*
G04 #@! TA.AperFunction,ComponentPad*
%ADD10C,1.600000*%
G04 #@! TD*
G04 #@! TA.AperFunction,ComponentPad*
%ADD11O,1.600000X1.600000*%
G04 #@! TD*
G04 #@! TA.AperFunction,ComponentPad*
%ADD12R,1.600000X1.600000*%
G04 #@! TD*
G04 #@! TA.AperFunction,SMDPad,CuDef*
%ADD13R,1.846667X3.480000*%
G04 #@! TD*
G04 #@! TA.AperFunction,ComponentPad*
%ADD14C,2.500000*%
G04 #@! TD*
G04 #@! TA.AperFunction,Conductor*
%ADD15C,0.400000*%
G04 #@! TD*
G04 APERTURE END LIST*
D10*
X143510000Y-77470000D03*
D11*
X120650000Y-77470000D03*
D12*
X143510000Y-73660000D03*
D11*
X140970000Y-73660000D03*
X138430000Y-73660000D03*
X135890000Y-73660000D03*
X133350000Y-73660000D03*
X130810000Y-73660000D03*
X128270000Y-73660000D03*
X125730000Y-73660000D03*
X123190000Y-73660000D03*
X120650000Y-73660000D03*
D13*
X152915001Y-100457000D03*
X150145001Y-100457000D03*
X147375001Y-100457000D03*
X144605001Y-100457000D03*
X141835001Y-100457000D03*
X139065001Y-100457000D03*
X136295001Y-100457000D03*
X133525001Y-100457000D03*
X130755001Y-100457000D03*
X127985001Y-100457000D03*
X125215001Y-100457000D03*
X122445001Y-100457000D03*
X119675001Y-100457000D03*
X119651000Y-67183000D03*
X122421000Y-67183000D03*
X125191000Y-67183000D03*
X127961000Y-67183000D03*
X130731000Y-67183000D03*
X133501000Y-67183000D03*
X136271000Y-67183000D03*
X139041000Y-67183000D03*
X141811000Y-67183000D03*
X144581000Y-67183000D03*
X147351000Y-67183000D03*
X150121000Y-67183000D03*
X152891000Y-67183000D03*
D10*
X146685000Y-73660000D03*
X151685000Y-73660000D03*
D14*
X146050000Y-81280000D03*
X144145000Y-86995000D03*
D15*
X143510000Y-73660000D02*
X143510000Y-77470000D01*
X143510000Y-77470000D02*
X143510000Y-84455000D01*
X143510000Y-84455000D02*
X144145000Y-85090000D01*
X144145000Y-85090000D02*
X144145000Y-86995000D01*
X120650000Y-73660000D02*
X120650000Y-77470000D01*
X152915001Y-93860001D02*
X152915001Y-98425000D01*
X148590000Y-89535000D02*
X152915001Y-93860001D01*
X148590000Y-74945001D02*
X148590000Y-89535000D01*
X152915001Y-68580000D02*
X152915001Y-70620000D01*
X152915001Y-70620000D02*
X148590000Y-74945001D01*
X152915001Y-98425000D02*
X152915001Y-100449999D01*
X147955000Y-92075000D02*
X150145001Y-94265001D01*
X150145001Y-94265001D02*
X150145001Y-98425000D01*
X147955000Y-74166002D02*
X147955000Y-92075000D01*
X150145001Y-68580000D02*
X150145001Y-71976001D01*
X150145001Y-71976001D02*
X147955000Y-74166002D01*
X150145001Y-98425000D02*
X150145001Y-100425999D01*
X147375001Y-94670001D02*
X147375001Y-98425000D01*
X147375001Y-68580000D02*
X147375001Y-70429999D01*
X146050000Y-93345000D02*
X147375001Y-94670001D01*
X147375001Y-70429999D02*
X144780000Y-73025000D01*
X144150129Y-79369871D02*
X144150129Y-82727127D01*
X144780000Y-73025000D02*
X144780000Y-78740000D01*
X144150129Y-82727127D02*
X146050000Y-84626998D01*
X146050000Y-84626998D02*
X146050000Y-93345000D01*
X144780000Y-78740000D02*
X144150129Y-79369871D01*
X147375001Y-98425000D02*
X147375001Y-100385001D01*
X144605001Y-95075001D02*
X144605001Y-98425000D01*
X142170001Y-92640001D02*
X144605001Y-95075001D01*
X142170001Y-72679997D02*
X142170001Y-92640001D01*
X144605001Y-68580000D02*
X144605001Y-70244997D01*
X144605001Y-70244997D02*
X142170001Y-72679997D01*
X144605001Y-98425000D02*
X144605001Y-100409001D01*
X141835001Y-95480001D02*
X141835001Y-98425000D01*
X140970000Y-73660000D02*
X140970000Y-94615000D01*
X140970000Y-94615000D02*
X141835001Y-95480001D01*
X141835001Y-70254999D02*
X141835001Y-68580000D01*
X140970000Y-73660000D02*
X140970000Y-71120000D01*
X140970000Y-71120000D02*
X141835001Y-70254999D01*
X141835001Y-98425000D02*
X141835001Y-100433001D01*
X139065001Y-73024999D02*
X138430000Y-73660000D01*
X139065001Y-68580000D02*
X139065001Y-73024999D01*
X138430000Y-73660000D02*
X138430000Y-95250000D01*
X139065001Y-95885001D02*
X139065001Y-98425000D01*
X138430000Y-95250000D02*
X139065001Y-95885001D01*
X139065001Y-98425000D02*
X139065001Y-100456999D01*
X136295001Y-73254999D02*
X135890000Y-73660000D01*
X136295001Y-68580000D02*
X136295001Y-73254999D01*
X135890000Y-73660000D02*
X135890000Y-95250000D01*
X136295001Y-95655001D02*
X136295001Y-98425000D01*
X135890000Y-95250000D02*
X136295001Y-95655001D01*
X136295001Y-98425000D02*
X136295001Y-100432999D01*
X133525001Y-73484999D02*
X133350000Y-73660000D01*
X133525001Y-68580000D02*
X133525001Y-73484999D01*
X133350000Y-73660000D02*
X133350000Y-95885000D01*
X133525001Y-96060001D02*
X133525001Y-98425000D01*
X133350000Y-95885000D02*
X133525001Y-96060001D01*
X133525001Y-98425000D02*
X133525001Y-100408999D01*
X130755001Y-73605001D02*
X130810000Y-73660000D01*
X130755001Y-68580000D02*
X130755001Y-73605001D01*
X130810000Y-73660000D02*
X130810000Y-95885000D01*
X130755001Y-95939999D02*
X130755001Y-98425000D01*
X130810000Y-95885000D02*
X130755001Y-95939999D01*
X130755001Y-98425000D02*
X130755001Y-100402001D01*
X127985001Y-73375001D02*
X128270000Y-73660000D01*
X127985001Y-68580000D02*
X127985001Y-73375001D01*
X128270000Y-73660000D02*
X128270000Y-95885000D01*
X127985001Y-96169999D02*
X127985001Y-98425000D01*
X128270000Y-95885000D02*
X127985001Y-96169999D01*
X127985001Y-98425000D02*
X127985001Y-100426001D01*
X125215001Y-73145001D02*
X125730000Y-73660000D01*
X125215001Y-68580000D02*
X125215001Y-73145001D01*
X125215001Y-95129999D02*
X125215001Y-98425000D01*
X125730000Y-73660000D02*
X125730000Y-94615000D01*
X125730000Y-94615000D02*
X125215001Y-95129999D01*
X125215001Y-98425000D02*
X125215001Y-100450001D01*
X122445001Y-72915001D02*
X123190000Y-73660000D01*
X122445001Y-68580000D02*
X122445001Y-72915001D01*
X123190000Y-73660000D02*
X123190000Y-93345000D01*
X122445001Y-94089999D02*
X122445001Y-98425000D01*
X123190000Y-93345000D02*
X122445001Y-94089999D01*
X122445001Y-98425000D02*
X122445001Y-100439999D01*
X119250509Y-95960508D02*
X119675001Y-96385000D01*
X119675001Y-96385000D02*
X119675001Y-98425000D01*
X119675001Y-70620000D02*
X119250509Y-71044492D01*
X119250509Y-71044492D02*
X119250509Y-95960508D01*
X119675001Y-68580000D02*
X119675001Y-70620000D01*
X119675001Y-98425000D02*
X119675001Y-100415999D01*
M02*
