G04 #@! TF.GenerationSoftware,KiCad,Pcbnew,8.0.4*
G04 #@! TF.CreationDate,2025-03-14T11:46:41-03:00*
G04 #@! TF.ProjectId,generic_8_bit_audio_dac,67656e65-7269-4635-9f38-5f6269745f61,rev?*
G04 #@! TF.SameCoordinates,Original*
G04 #@! TF.FileFunction,Copper,L2,Bot*
G04 #@! TF.FilePolarity,Positive*
%FSLAX46Y46*%
G04 Gerber Fmt 4.6, Leading zero omitted, Abs format (unit mm)*
G04 Created by KiCad (PCBNEW 8.0.4) date 2025-03-14 11:46:41*
%MOMM*%
%LPD*%
G01*
G04 APERTURE LIST*
G04 #@! TA.AperFunction,ComponentPad*
%ADD10C,1.600000*%
G04 #@! TD*
G04 #@! TA.AperFunction,ComponentPad*
%ADD11O,1.600000X1.600000*%
G04 #@! TD*
G04 #@! TA.AperFunction,ComponentPad*
%ADD12R,1.600000X1.600000*%
G04 #@! TD*
G04 #@! TA.AperFunction,SMDPad,CuDef*
%ADD13R,1.846667X3.480000*%
G04 #@! TD*
G04 #@! TA.AperFunction,ComponentPad*
%ADD14C,2.500000*%
G04 #@! TD*
G04 #@! TA.AperFunction,Conductor*
%ADD15C,0.400000*%
G04 #@! TD*
G04 APERTURE END LIST*
D10*
X143510000Y-77470000D03*
D11*
X120650000Y-77470000D03*
D12*
X143510000Y-73660000D03*
D11*
X140970000Y-73660000D03*
X138430000Y-73660000D03*
X135890000Y-73660000D03*
X133350000Y-73660000D03*
X130810000Y-73660000D03*
X128270000Y-73660000D03*
X125730000Y-73660000D03*
X123190000Y-73660000D03*
X120650000Y-73660000D03*
D13*
X151530001Y-100457000D03*
X148760001Y-100457000D03*
X145990001Y-100457000D03*
X143220001Y-100457000D03*
X140450001Y-100457000D03*
X137680001Y-100457000D03*
X134910001Y-100457000D03*
X132140001Y-100457000D03*
X129370001Y-100457000D03*
X126600001Y-100457000D03*
X123830001Y-100457000D03*
X121060001Y-100457000D03*
X121036000Y-67183000D03*
X123806000Y-67183000D03*
X126576000Y-67183000D03*
X129346000Y-67183000D03*
X132116000Y-67183000D03*
X134886000Y-67183000D03*
X137656000Y-67183000D03*
X140426000Y-67183000D03*
X143196000Y-67183000D03*
X145966000Y-67183000D03*
X148736000Y-67183000D03*
X151506000Y-67183000D03*
D10*
X146685000Y-73660000D03*
X151685000Y-73660000D03*
D14*
X146050000Y-81280000D03*
X144145000Y-86995000D03*
D15*
X144610000Y-73660000D02*
X146685000Y-73660000D01*
X143510000Y-73660000D02*
X144610000Y-73660000D01*
X151685000Y-73660000D02*
X151685000Y-75645000D01*
X151685000Y-75645000D02*
X146050000Y-81280000D01*
X151530001Y-95650001D02*
X151530001Y-98425000D01*
X146050000Y-81280000D02*
X146050000Y-90170000D01*
X146050000Y-90170000D02*
X151530001Y-95650001D01*
X151530001Y-68580000D02*
X151530001Y-67763334D01*
X151530001Y-73505001D02*
X151685000Y-73660000D01*
X151530001Y-66186001D02*
X151530001Y-73505001D01*
X151530001Y-98425000D02*
X151530001Y-100349001D01*
X151224010Y-64864010D02*
X151511000Y-65151000D01*
X119971655Y-64864010D02*
X151224010Y-64864010D01*
X119380000Y-65455665D02*
X119971655Y-64864010D01*
X151511000Y-65151000D02*
X151511000Y-66167000D01*
X120650000Y-73660000D02*
X119380000Y-72390000D01*
X119380000Y-72390000D02*
X119380000Y-65455665D01*
X142240000Y-89535000D02*
X148760001Y-96055001D01*
X142240000Y-81987122D02*
X142240000Y-89535000D01*
X148760001Y-68580000D02*
X148760001Y-75467121D01*
X148760001Y-96055001D02*
X148760001Y-98425000D01*
X148760001Y-75467121D02*
X142240000Y-81987122D01*
X148760001Y-98425000D02*
X148760001Y-100373001D01*
X145990001Y-96460001D02*
X145990001Y-98425000D01*
X145990001Y-70425001D02*
X147885001Y-72320001D01*
X140970000Y-81915000D02*
X140970000Y-91440000D01*
X140970000Y-91440000D02*
X145990001Y-96460001D01*
X145990001Y-68580000D02*
X145990001Y-70425001D01*
X147885001Y-74999999D02*
X140970000Y-81915000D01*
X147885001Y-72320001D02*
X147885001Y-74999999D01*
X145990001Y-98425000D02*
X145990001Y-100389999D01*
X143220001Y-96865001D02*
X143220001Y-98425000D01*
X143220001Y-70620000D02*
X142240000Y-71600001D01*
X142240000Y-71600001D02*
X142240000Y-76200000D01*
X139700000Y-78740000D02*
X139700000Y-93345000D01*
X139700000Y-93345000D02*
X143220001Y-96865001D01*
X143220001Y-68580000D02*
X143220001Y-70620000D01*
X142240000Y-76200000D02*
X139700000Y-78740000D01*
X143220001Y-98425000D02*
X143220001Y-100421001D01*
X140450001Y-96385000D02*
X140450001Y-98425000D01*
X140450001Y-70620000D02*
X139700000Y-71370001D01*
X138430000Y-94364999D02*
X140450001Y-96385000D01*
X140450001Y-68580000D02*
X140450001Y-70620000D01*
X139700000Y-71370001D02*
X139700000Y-77170508D01*
X139700000Y-77170508D02*
X138430000Y-78440508D01*
X138430000Y-78440508D02*
X138430000Y-94364999D01*
X140450001Y-98425000D02*
X140450001Y-100445001D01*
X137160000Y-95864999D02*
X137680001Y-96385000D01*
X137160000Y-71140001D02*
X137160000Y-95864999D01*
X137680001Y-96385000D02*
X137680001Y-98425000D01*
X137680001Y-68580000D02*
X137680001Y-70620000D01*
X137680001Y-70620000D02*
X137160000Y-71140001D01*
X137680001Y-98425000D02*
X137680001Y-100444999D01*
X134620000Y-96094999D02*
X134910001Y-96385000D01*
X134910001Y-96385000D02*
X134910001Y-98425000D01*
X134620000Y-70910001D02*
X134620000Y-96094999D01*
X134910001Y-68580000D02*
X134910001Y-70620000D01*
X134910001Y-70620000D02*
X134620000Y-70910001D01*
X134910001Y-98425000D02*
X134910001Y-100420999D01*
X132080000Y-70680001D02*
X132080000Y-98364999D01*
X132140001Y-68580000D02*
X132140001Y-70620000D01*
X132140001Y-70620000D02*
X132080000Y-70680001D01*
X132080000Y-98364999D02*
X132080000Y-100457000D01*
X129540000Y-96215001D02*
X129370001Y-96385000D01*
X129370001Y-96385000D02*
X129370001Y-98425000D01*
X129540000Y-71120000D02*
X129540000Y-96215001D01*
X129370001Y-68580000D02*
X129370001Y-70950001D01*
X129370001Y-70950001D02*
X129540000Y-71120000D01*
X129370001Y-98425000D02*
X129370001Y-100414001D01*
X126600001Y-96385000D02*
X126600001Y-98425000D01*
X127000000Y-95985001D02*
X126600001Y-96385000D01*
X127000000Y-71120000D02*
X127000000Y-95985001D01*
X126600001Y-68580000D02*
X126600001Y-70720001D01*
X126600001Y-70720001D02*
X127000000Y-71120000D01*
X126600001Y-98425000D02*
X126600001Y-100438001D01*
X123830001Y-96385000D02*
X123830001Y-98425000D01*
X124460000Y-95755001D02*
X123830001Y-96385000D01*
X124460000Y-71120000D02*
X124460000Y-95755001D01*
X123830001Y-68580000D02*
X123830001Y-70490001D01*
X123830001Y-70490001D02*
X124460000Y-71120000D01*
X123830001Y-98425000D02*
X123830001Y-100335001D01*
X121060001Y-96385000D02*
X121060001Y-98425000D01*
X121920000Y-95525001D02*
X121060001Y-96385000D01*
X121920000Y-71479999D02*
X121920000Y-95525001D01*
X121060001Y-68580000D02*
X121060001Y-70620000D01*
X121060001Y-70620000D02*
X121920000Y-71479999D01*
X121060001Y-98425000D02*
X121060001Y-100359001D01*
M02*
